<?xml version="1.0" encoding="utf-8"?>
<!-- Generator: Adobe Illustrator 24.3.0, SVG Export Plug-In . SVG Version: 6.00 Build 0)  -->
<svg version="1.1" id="Capa_1" xmlns="http://www.w3.org/2000/svg" xmlns:xlink="http://www.w3.org/1999/xlink" x="0px" y="0px"
	 viewBox="0 0 719.98 425.2" style="enable-background:new 0 0 719.98 425.2;" xml:space="preserve">
<style type="text/css">
	.st0{fill:#87D6F7;}
	.st1{fill:#851256;}
	.st2{fill:#FFFFFF;}
</style>
<path class="st0" d="M366.66,191.8c0,81.78-66.29,148.08-148.07,148.08c-81.77,0-148.08-66.3-148.08-148.08
	c0-81.78,66.31-148.08,148.08-148.08C300.36,43.71,366.66,110.01,366.66,191.8z"/>
<path class="st1" d="M218.58,342.87c-83.31,0-151.08-67.77-151.08-151.08c0-83.31,67.78-151.08,151.08-151.08
	c83.3,0,151.07,67.78,151.07,151.08C369.66,275.1,301.88,342.87,218.58,342.87z M218.58,46.71c-80,0-145.08,65.08-145.08,145.08
	c0,80,65.08,145.08,145.08,145.08c79.99,0,145.07-65.08,145.07-145.08C363.66,111.8,298.58,46.71,218.58,46.71z"/>
<path class="st2" d="M218.96,245.03c0.46,0,0.92,0.01,1.39,0c0.84,0,1.69-0.01,2.53,0.05c31.35,2.08,27.3,63.02,27.3,63.02
	c1.4,15.29,14.47,9.37,14.47,9.37c31.37-22.44,23.42-98.35,23.42-98.35c23.42-34.35,9.37-73.38,9.37-73.38
	c-6.28-16.32-18.44-28.42-36.32-29.88c-15.36-1.25-27.98,11.02-42.54,11.85c-14.55-0.82-27.18-13.1-42.53-11.85
	c-17.89,1.46-30.05,13.57-36.33,29.88c0,0-14.05,39.03,9.37,73.38c0,0-7.95,75.91,23.42,98.35c0,0,13.07,5.92,14.47-9.37
	c0,0-4.05-60.93,27.3-63.02C215.83,244.99,217.4,245.01,218.96,245.03z"/>
<path class="st1" d="M299.76,144.86l0.01-0.01c-7.26-18.86-20.92-30.04-38.45-31.48c-9-0.73-16.95,2.77-24.64,6.17
	c-6.16,2.72-11.98,5.29-18.1,5.67c-6.12-0.38-11.94-2.95-18.1-5.67c-7.69-3.39-15.64-6.9-24.64-6.17
	c-17.54,1.43-31.2,12.61-38.46,31.48c-0.01,0.02-0.02,0.05-0.03,0.07c-0.59,1.67-13.85,40.28,9.15,74.86
	c-0.85,9.17-6.12,77.79,24.54,99.73c0.13,0.09,0.27,0.18,0.42,0.24c0.18,0.08,3.02,1.34,6.45,1.34c1.82,0,3.8-0.35,5.64-1.42
	c3.41-1.98,5.39-5.8,5.9-11.34c0.01-0.13,0.01-0.26,0-0.39c-0.04-0.58-3.53-58.46,24.97-60.36c1.34-0.09,2.7-0.07,4.13-0.06l0.36,0
	c0.01,0,0.02,0,0.03,0l0.5,0c0.31,0,0.62,0,0.94,0c0.81,0,1.57-0.01,2.32,0.05c28.5,1.9,25.01,59.78,24.98,60.36
	c-0.01,0.13-0.01,0.26,0,0.39c0.51,5.54,2.49,9.35,5.9,11.34c5.3,3.09,11.81,0.21,12.09,0.08c0.15-0.07,0.29-0.15,0.42-0.24
	c30.66-21.94,25.39-90.57,24.54-99.73C313.07,186.07,300.91,148.13,299.76,144.86z M263.43,315.28c-0.91,0.35-4.65,1.64-7.33,0.06
	c-1.89-1.11-3.03-3.56-3.4-7.28c0.28-4.64,3.19-63.29-29.63-65.47c-0.92-0.07-1.81-0.06-2.75-0.06c-0.27,0-0.54,0-0.82,0l-0.87-0.01
	c-1.46-0.01-2.98-0.03-4.52,0.07c-32.84,2.18-29.93,60.83-29.64,65.47c-0.37,3.72-1.52,6.17-3.4,7.27
	c-2.69,1.58-6.44,0.29-7.34-0.06c-29.56-21.55-22.23-95.15-22.16-95.89c0.06-0.59-0.09-1.18-0.42-1.67
	c-22.19-32.54-9.76-69.2-9.09-71.1c6.53-16.95,18.67-26.99,34.19-28.26c7.74-0.63,14.77,2.47,22.21,5.76
	c3.37,1.49,6.81,3,10.35,4.15c0.01,0,0.02,0.01,0.02,0.01c4.54,1.61,21.83,7.44,34.4,7.44c5.5,0,10.1-1.12,12.32-4.2
	c0.81-1.12,0.55-2.68-0.57-3.49c-1.12-0.81-2.68-0.55-3.49,0.57c-2.46,3.41-12.89,2.46-23.94-0.08c3.82-1.18,7.52-2.81,11.15-4.41
	c7.44-3.28,14.47-6.39,22.21-5.76c15.51,1.27,27.65,11.3,34.18,28.26c0.36,1.04,13.11,38.54-9.09,71.1
	c-0.33,0.49-0.48,1.08-0.42,1.67C285.66,220.13,292.98,293.73,263.43,315.28z"/>
<path class="st2" d="M318.53,95.56c-26.34,2.22-28.14,4.02-30.36,30.36c-2.22-26.35-4.02-28.15-30.36-30.36
	c26.35-2.22,28.15-4.02,30.36-30.36C290.39,91.54,292.19,93.34,318.53,95.56z"/>
<path class="st2" d="M142.06,218.91c-26.35,2.22-28.14,4.02-30.36,30.36c-2.22-26.34-4.02-28.14-30.36-30.36
	c26.35-2.22,28.14-4.02,30.36-30.36C113.92,214.89,115.71,216.69,142.06,218.91z"/>
<g>
	<path d="M555.4,339.96c-4.64,0-9.28,0-13.92,0c-0.31-0.06-0.62-0.15-0.93-0.18c-5.44-0.57-10.91-0.92-16.31-1.74
		c-14.61-2.22-28.53-6.75-41.82-13.2c-7.61-3.69-14.83-8.03-21.71-12.95c-11.15-7.97-21.05-17.29-29.69-27.93
		c-7.69-9.48-14.15-19.74-19.36-30.79c-4.8-10.17-8.44-20.73-10.83-31.71c-1.98-9.08-3.27-18.25-3.4-27.56
		c0-0.35-0.12-0.7-0.18-1.05c0-2.72,0-5.44,0-8.16c0.06-0.55,0.15-1.1,0.19-1.65c0.35-4.54,0.55-9.09,1.09-13.61
		c0.98-8.19,2.74-16.23,5.12-24.13c4.01-13.33,9.75-25.87,17.24-37.59c8.15-12.75,17.94-24.07,29.46-33.89
		c8.25-7.03,17.11-13.14,26.65-18.27c8.79-4.73,17.95-8.59,27.52-11.46c10.79-3.24,21.79-5.39,33.05-6.09
		c1.87-0.12,3.73-0.28,5.6-0.42c3.52,0,7.04,0,10.56,0c0.35,0.06,0.7,0.15,1.05,0.18c5.25,0.48,10.52,0.76,15.73,1.46
		c15.09,2.04,29.47,6.55,43.2,13.1c13.59,6.48,25.93,14.85,37,25.05c8.46,7.79,16.02,16.41,22.52,25.92
		c8.88,13.01,15.67,27.01,20.18,42.11c3.03,10.14,5.02,20.48,5.81,31.05c0.12,1.55,0.28,3.09,0.42,4.64c0,5.12,0,10.24,0,15.36
		c-0.06,0.31-0.15,0.62-0.18,0.93c-0.35,3.82-0.54,7.66-1.04,11.45c-2.35,17.65-7.67,34.36-15.95,50.14
		c-6.74,12.84-15.2,24.42-25.19,34.89c-5.11,5.36-10.67,10.24-16.54,14.76c-12,9.24-25.07,16.56-39.26,21.86
		c-13.3,4.97-27.02,8.06-41.2,9.07C558.65,339.65,557.02,339.81,555.4,339.96z M558.52,125.39c0,0.1,0,0.2,0,0.3
		c3.3,0.53,6.58,1.12,9.89,1.58c3.17,0.44,6.38,0.7,9.52-0.05c1.19-0.28,2.36-0.97,3.32-1.75c1.47-1.19,2.9-1.42,4.04-0.31
		c1.15,1.13,1.07,2.65-0.2,4.06c-1.7,1.88-3.92,2.7-6.32,3.17c-4.42,0.86-8.84,0.55-13.25-0.08c-10.22-1.45-20.09-4.29-29.73-7.94
		c-4.97-1.88-9.79-4.17-14.73-6.12c-4.9-1.94-9.93-3.22-15.32-2.69c-6.31,0.63-12.12,2.58-17.3,6.21
		c-8.05,5.64-13.3,13.43-16.48,22.6c-2.33,6.72-3.26,13.74-3.72,20.84c-0.49,7.43,0.03,14.77,1.48,22.06
		c1.94,9.73,5.72,18.7,11.19,26.98c0.43,0.65,0.69,1.57,0.65,2.34c-0.2,4.59-0.64,9.17-0.74,13.76c-0.1,5.03-0.09,10.08,0.2,15.1
		c0.4,6.89,0.91,13.79,1.72,20.65c1.03,8.64,3.04,17.08,6.24,25.21c2.76,6.99,6.44,13.39,11.98,18.61c1.77,1.67,3.7,2.9,6.2,3.04
		c2.24,0.13,4.14-0.53,5.38-2.46c1.13-1.75,1.6-3.76,1.63-5.82c0.07-4.75-0.01-9.51,0.1-14.26c0.15-6.57,1.01-13.07,2.43-19.48
		c1.63-7.39,3.99-14.5,8.48-20.73c3.29-4.57,7.45-8.02,12.92-9.66c5.75-1.72,11.65-1.54,17.48-0.74
		c7.21,0.99,12.55,5.12,16.59,11.01c4.31,6.28,6.79,13.33,8.13,20.74c1.07,5.93,1.83,11.93,2.35,17.93
		c0.37,4.32,0.15,8.7,0.11,13.05c-0.02,2.22,0.01,4.4,0.85,6.49c1.61,4,6.78,5.31,10.22,2.65c3.76-2.9,6.73-6.48,9.21-10.48
		c3.81-6.14,6.29-12.84,8.14-19.79c3.86-14.48,4.79-29.3,5.06-44.2c0.06-3.27-0.1-6.55-0.22-9.83c-0.08-2.23-0.27-4.46-0.4-6.7
		c-0.17-2.84-0.41-5.47,1.4-8.2c7.61-11.54,11.09-24.46,11.71-38.17c0.38-8.51-0.39-16.95-2.41-25.23
		c-2.66-10.92-7.99-20.27-17.26-26.86c-8.81-6.26-18.64-8.8-29.19-5.26C572.65,119.4,565.64,122.56,558.52,125.39z M589.28,92.44
		c0.01,0.08,0.03,0.16,0.04,0.25c1.11,0.1,2.23,0.14,3.33,0.32c4.45,0.73,8.95,1.26,13.32,2.33c4.62,1.13,7.65,4.25,9.2,8.81
		c1.44,4.21,1.87,8.58,2.38,12.94c0.18,1.53,0.32,3.06,0.49,4.59c0.27-1.1,0.32-2.18,0.48-3.24c0.65-4.26,1.13-8.56,2.04-12.76
		c1-4.58,3.59-8.14,8.16-9.8c2.31-0.84,4.74-1.47,7.17-1.87c3.68-0.61,7.4-0.95,11.1-1.4c-0.48-0.18-0.98-0.25-1.48-0.32
		c-4.47-0.63-8.97-1.08-13.39-1.93c-6.3-1.22-10.33-5.05-11.69-11.4c-0.7-3.24-1.16-6.52-1.66-9.8c-0.28-1.85-0.4-3.71-0.59-5.57
		c-0.24,0.56-0.31,1.11-0.39,1.66c-0.68,4.62-1.17,9.28-2.1,13.85c-1.22,6.03-5.07,9.8-11.08,11.1c-3.82,0.82-7.72,1.27-11.59,1.85
		C591.79,92.22,590.53,92.31,589.28,92.44z M470.36,215.86c0.02-0.03,0.04-0.06,0.06-0.09c-1.29-0.12-2.59-0.23-3.87-0.37
		c-4.45-0.49-8.9-0.92-13.18-2.35c-4.46-1.49-7.4-4.4-8.88-8.86c-1.43-4.33-1.88-8.82-2.37-13.3c-0.13-1.2-0.24-2.4-0.36-3.61
		c-0.3,0.34-0.31,0.67-0.36,1c-0.71,4.77-1.32,9.57-2.18,14.31c-0.47,2.57-1.65,4.9-3.49,6.86c-2.45,2.6-5.61,3.82-8.98,4.45
		c-3.49,0.65-7.03,1.03-10.55,1.51c-1.11,0.15-2.24,0.25-3.35,0.37c1.91,0.43,3.8,0.59,5.68,0.81c4.41,0.52,8.82,1,12.96,2.79
		c3.08,1.33,5.28,3.53,6.63,6.6c1.82,4.13,2.28,8.55,2.81,12.95c0.22,1.84,0.39,3.69,0.58,5.53c0.27-0.23,0.34-0.48,0.38-0.73
		c0.65-4.62,1.16-9.27,1.98-13.86c0.52-2.89,1.73-5.55,3.85-7.73c2.5-2.57,5.71-3.68,9.06-4.29
		C461.27,217.04,465.83,216.51,470.36,215.86z"/>
</g>
</svg>
