<?xml version="1.0" encoding="UTF-8"?>
<svg xmlns="http://www.w3.org/2000/svg" xmlns:xlink="http://www.w3.org/1999/xlink" width="254px" height="150px" viewBox="0 0 360 213" version="1.1">
<g id="surface1">
<path style=" stroke:none;fill-rule:nonzero;fill:rgb(52.941176%,83.921569%,96.862745%);fill-opacity:1;" d="M 183.332031 96.082031 C 183.332031 137.046875 150.203125 170.257812 109.332031 170.257812 C 68.46875 170.257812 35.328125 137.046875 35.328125 96.082031 C 35.328125 55.113281 68.46875 21.902344 109.332031 21.902344 C 150.199219 21.894531 183.332031 55.109375 183.332031 96.082031 Z M 183.332031 96.082031 "/>
<path style=" stroke:none;fill-rule:nonzero;fill:rgb(52.156863%,7.058824%,33.72549%);fill-opacity:1;" d="M 109.328125 171.757812 C 67.691406 171.757812 33.824219 137.808594 33.824219 96.074219 C 33.824219 54.34375 67.699219 20.394531 109.328125 20.394531 C 150.957031 20.394531 184.828125 54.347656 184.828125 96.074219 C 184.832031 137.808594 150.957031 171.757812 109.328125 171.757812 Z M 109.328125 23.398438 C 69.347656 23.398438 36.824219 56 36.824219 96.074219 C 36.824219 136.152344 69.347656 168.75 109.328125 168.75 C 149.304688 168.75 181.828125 136.152344 181.828125 96.074219 C 181.835938 56.003906 149.308594 23.398438 109.328125 23.398438 Z M 109.328125 23.398438 "/>
<path style=" stroke:none;fill-rule:nonzero;fill:rgb(100%,100%,100%);fill-opacity:1;" d="M 109.519531 122.746094 C 109.75 122.746094 109.976562 122.75 110.210938 122.746094 C 110.632812 122.746094 111.058594 122.742188 111.476562 122.769531 C 127.144531 123.8125 125.121094 154.339844 125.121094 154.339844 C 125.820312 162 132.351562 159.035156 132.351562 159.035156 C 148.03125 147.792969 144.058594 109.765625 144.058594 109.765625 C 155.761719 92.558594 148.738281 73.007812 148.738281 73.007812 C 145.601562 64.832031 139.523438 58.769531 130.589844 58.039062 C 122.910156 57.414062 116.605469 63.558594 109.328125 63.976562 C 102.058594 63.5625 95.746094 57.414062 88.074219 58.039062 C 79.132812 58.769531 73.054688 64.835938 69.917969 73.007812 C 69.917969 73.007812 62.894531 92.558594 74.597656 109.765625 C 74.597656 109.765625 70.625 147.792969 86.304688 159.035156 C 86.304688 159.035156 92.835938 162 93.535156 154.339844 C 93.535156 154.339844 91.511719 123.816406 107.179688 122.769531 C 107.953125 122.726562 108.738281 122.734375 109.519531 122.746094 Z M 109.519531 122.746094 "/>
<path style=" stroke:none;fill-rule:nonzero;fill:rgb(52.156863%,7.058824%,33.72549%);fill-opacity:1;" d="M 149.898438 72.566406 L 149.902344 72.5625 C 146.277344 63.113281 139.449219 57.511719 130.6875 56.792969 C 126.191406 56.425781 122.21875 58.179688 118.375 59.882812 C 115.296875 61.246094 112.386719 62.53125 109.328125 62.722656 C 106.269531 62.53125 103.359375 61.246094 100.28125 59.882812 C 96.4375 58.183594 92.464844 56.425781 87.96875 56.792969 C 79.203125 57.507812 72.375 63.109375 68.746094 72.5625 C 68.742188 72.570312 68.738281 72.585938 68.730469 72.597656 C 68.4375 73.433594 61.8125 92.773438 73.304688 110.097656 C 72.878906 114.691406 70.246094 149.066406 85.570312 160.054688 C 85.632812 160.101562 85.703125 160.144531 85.78125 160.175781 C 85.871094 160.214844 87.289062 160.847656 89.003906 160.847656 C 89.914062 160.847656 90.902344 160.671875 91.820312 160.136719 C 93.527344 159.144531 94.515625 157.230469 94.769531 154.453125 C 94.773438 154.390625 94.773438 154.324219 94.769531 154.257812 C 94.75 153.96875 93.007812 124.976562 107.25 124.023438 C 107.917969 123.976562 108.597656 123.988281 109.3125 123.992188 L 109.492188 123.992188 C 109.5 123.992188 109.503906 123.992188 109.507812 123.992188 L 109.757812 123.992188 C 109.914062 123.992188 110.066406 123.992188 110.226562 123.992188 C 110.632812 123.992188 111.011719 123.988281 111.386719 124.019531 C 125.628906 124.96875 123.886719 153.964844 123.871094 154.253906 C 123.867188 154.320312 123.867188 154.386719 123.871094 154.449219 C 124.125 157.226562 125.117188 159.132812 126.820312 160.128906 C 129.46875 161.679688 132.722656 160.234375 132.863281 160.171875 C 132.9375 160.136719 133.007812 160.09375 133.070312 160.050781 C 148.394531 149.058594 145.761719 114.679688 145.335938 110.089844 C 156.550781 93.210938 150.472656 74.203125 149.898438 72.566406 Z M 131.742188 157.9375 C 131.289062 158.113281 129.417969 158.757812 128.078125 157.964844 C 127.136719 157.410156 126.566406 156.183594 126.378906 154.320312 C 126.519531 151.996094 127.972656 122.617188 111.570312 121.523438 C 111.113281 121.488281 110.667969 121.492188 110.199219 121.492188 C 110.0625 121.492188 109.929688 121.492188 109.789062 121.492188 L 109.351562 121.488281 C 108.625 121.484375 107.863281 121.472656 107.09375 121.523438 C 90.683594 122.617188 92.136719 151.996094 92.28125 154.320312 C 92.097656 156.183594 91.523438 157.410156 90.582031 157.960938 C 89.238281 158.753906 87.363281 158.105469 86.914062 157.929688 C 72.140625 147.136719 75.804688 110.265625 75.839844 109.894531 C 75.867188 109.601562 75.792969 109.304688 75.628906 109.058594 C 64.539062 92.757812 70.75 74.394531 71.085938 73.441406 C 74.351562 64.953125 80.417969 59.921875 88.171875 59.285156 C 92.042969 58.972656 95.554688 60.523438 99.273438 62.171875 C 100.957031 62.917969 102.675781 63.675781 104.445312 64.25 C 104.449219 64.25 104.457031 64.253906 104.457031 64.253906 C 106.722656 65.0625 115.367188 67.984375 121.648438 67.984375 C 124.394531 67.984375 126.695312 67.421875 127.804688 65.878906 C 128.210938 65.316406 128.078125 64.535156 127.519531 64.128906 C 126.960938 63.726562 126.179688 63.855469 125.777344 64.414062 C 124.546875 66.125 119.332031 65.648438 113.8125 64.375 C 115.71875 63.785156 117.570312 62.96875 119.382812 62.167969 C 123.101562 60.523438 126.613281 58.964844 130.484375 59.28125 C 138.234375 59.917969 144.300781 64.941406 147.566406 73.4375 C 147.746094 73.957031 154.117188 92.746094 143.023438 109.054688 C 142.859375 109.300781 142.78125 109.597656 142.8125 109.890625 C 142.851562 110.273438 146.511719 147.140625 131.742188 157.9375 Z M 131.742188 157.9375 "/>
<path style=" stroke:none;fill-rule:nonzero;fill:rgb(100%,100%,100%);fill-opacity:1;" d="M 159.28125 47.871094 C 146.117188 48.980469 145.214844 49.882812 144.105469 63.078125 C 142.996094 49.878906 142.097656 48.976562 128.933594 47.871094 C 142.101562 46.757812 143.003906 45.855469 144.105469 32.660156 C 145.214844 45.855469 146.117188 46.757812 159.28125 47.871094 Z M 159.28125 47.871094 "/>
<path style=" stroke:none;fill-rule:nonzero;fill:rgb(100%,100%,100%);fill-opacity:1;" d="M 71.085938 109.660156 C 57.917969 110.773438 57.023438 111.675781 55.914062 124.871094 C 54.804688 111.675781 53.90625 110.773438 40.742188 109.660156 C 53.910156 108.550781 54.804688 107.648438 55.914062 94.453125 C 57.023438 107.648438 57.917969 108.550781 71.085938 109.660156 Z M 71.085938 109.660156 "/>
<path style=" stroke:none;fill-rule:nonzero;fill:rgb(0%,0%,0%);fill-opacity:1;" d="M 277.660156 170.300781 C 275.339844 170.300781 273.019531 170.300781 270.703125 170.300781 C 270.546875 170.269531 270.390625 170.226562 270.238281 170.210938 C 267.519531 169.925781 264.785156 169.75 262.085938 169.339844 C 254.785156 168.226562 247.828125 165.957031 241.1875 162.726562 C 237.382812 160.878906 233.773438 158.703125 230.335938 156.238281 C 224.765625 152.246094 219.816406 147.578125 215.5 142.246094 C 211.65625 137.5 208.425781 132.359375 205.824219 126.824219 C 203.425781 121.730469 201.605469 116.4375 200.410156 110.9375 C 199.421875 106.390625 198.777344 101.796875 198.710938 97.132812 C 198.710938 96.957031 198.652344 96.78125 198.621094 96.605469 C 198.621094 95.242188 198.621094 93.882812 198.621094 92.519531 C 198.652344 92.242188 198.695312 91.96875 198.714844 91.691406 C 198.890625 89.417969 198.992188 87.136719 199.261719 84.875 C 199.75 80.773438 200.628906 76.742188 201.820312 72.785156 C 203.824219 66.109375 206.691406 59.828125 210.4375 53.957031 C 214.507812 47.570312 219.402344 41.898438 225.160156 36.980469 C 229.28125 33.457031 233.710938 30.398438 238.476562 27.828125 C 242.871094 25.457031 247.449219 23.523438 252.230469 22.085938 C 257.625 20.464844 263.121094 19.386719 268.75 19.035156 C 269.683594 18.976562 270.613281 18.894531 271.546875 18.824219 C 273.304688 18.824219 275.066406 18.824219 276.824219 18.824219 C 277 18.855469 277.175781 18.902344 277.347656 18.914062 C 279.972656 19.15625 282.605469 19.296875 285.210938 19.648438 C 292.75 20.667969 299.9375 22.929688 306.800781 26.210938 C 313.59375 29.457031 319.757812 33.648438 325.292969 38.757812 C 329.519531 42.660156 333.296875 46.976562 336.546875 51.742188 C 340.984375 58.257812 344.378906 65.273438 346.632812 72.835938 C 348.144531 77.917969 349.140625 83.097656 349.535156 88.390625 C 349.59375 89.167969 349.675781 89.9375 349.746094 90.714844 C 349.746094 93.28125 349.746094 95.84375 349.746094 98.410156 C 349.714844 98.566406 349.671875 98.71875 349.65625 98.875 C 349.480469 100.789062 349.386719 102.710938 349.136719 104.613281 C 347.960938 113.453125 345.300781 121.824219 341.164062 129.730469 C 337.796875 136.160156 333.566406 141.960938 328.574219 147.207031 C 326.019531 149.890625 323.242188 152.335938 320.308594 154.601562 C 314.3125 159.230469 307.78125 162.894531 300.6875 165.550781 C 294.042969 168.039062 287.183594 169.589844 280.097656 170.09375 C 279.285156 170.144531 278.46875 170.226562 277.660156 170.300781 Z M 279.21875 62.8125 C 279.21875 62.863281 279.21875 62.914062 279.21875 62.964844 C 280.867188 63.230469 282.507812 63.523438 284.160156 63.753906 C 285.746094 63.976562 287.347656 64.105469 288.917969 63.730469 C 289.511719 63.589844 290.097656 63.242188 290.578125 62.851562 C 291.3125 62.257812 292.027344 62.140625 292.597656 62.699219 C 293.171875 63.265625 293.132812 64.023438 292.496094 64.730469 C 291.648438 65.671875 290.539062 66.085938 289.339844 66.320312 C 287.128906 66.75 284.921875 66.59375 282.714844 66.28125 C 277.609375 65.554688 272.675781 64.128906 267.859375 62.300781 C 265.375 61.359375 262.964844 60.214844 260.496094 59.234375 C 258.046875 58.265625 255.535156 57.625 252.839844 57.890625 C 249.6875 58.203125 246.785156 59.179688 244.195312 61 C 240.171875 63.824219 237.546875 67.726562 235.957031 72.320312 C 234.792969 75.6875 234.328125 79.203125 234.097656 82.761719 C 233.855469 86.480469 234.113281 90.160156 234.839844 93.8125 C 235.808594 98.683594 237.699219 103.179688 240.429688 107.328125 C 240.644531 107.652344 240.777344 108.113281 240.757812 108.5 C 240.65625 110.796875 240.4375 113.09375 240.386719 115.390625 C 240.335938 117.910156 240.339844 120.441406 240.488281 122.957031 C 240.6875 126.40625 240.941406 129.863281 241.347656 133.300781 C 241.859375 137.628906 242.867188 141.855469 244.464844 145.929688 C 245.84375 149.429688 247.683594 152.636719 250.453125 155.25 C 251.335938 156.089844 252.300781 156.703125 253.550781 156.773438 C 254.667969 156.839844 255.621094 156.507812 256.238281 155.542969 C 256.804688 154.664062 257.039062 153.660156 257.054688 152.625 C 257.089844 150.246094 257.046875 147.863281 257.105469 145.484375 C 257.179688 142.191406 257.609375 138.9375 258.316406 135.726562 C 259.132812 132.023438 260.3125 128.460938 262.554688 125.339844 C 264.199219 123.050781 266.28125 121.324219 269.011719 120.5 C 271.886719 119.640625 274.835938 119.730469 277.75 120.128906 C 281.351562 120.625 284.019531 122.695312 286.039062 125.644531 C 288.195312 128.792969 289.433594 132.324219 290.101562 136.035156 C 290.636719 139.007812 291.019531 142.011719 291.277344 145.015625 C 291.460938 147.179688 291.351562 149.375 291.332031 151.554688 C 291.324219 152.667969 291.335938 153.757812 291.757812 154.804688 C 292.5625 156.808594 295.144531 157.464844 296.863281 156.132812 C 298.742188 154.679688 300.226562 152.886719 301.46875 150.882812 C 303.371094 147.808594 304.613281 144.453125 305.535156 140.96875 C 307.464844 133.714844 307.929688 126.292969 308.066406 118.828125 C 308.09375 117.191406 308.015625 115.546875 307.953125 113.902344 C 307.914062 112.785156 307.820312 111.667969 307.753906 110.546875 C 307.667969 109.125 307.550781 107.808594 308.453125 106.441406 C 312.257812 100.660156 313.996094 94.1875 314.308594 87.320312 C 314.496094 83.054688 314.113281 78.828125 313.101562 74.679688 C 311.773438 69.210938 309.109375 64.527344 304.476562 61.226562 C 300.074219 58.089844 295.160156 56.816406 289.886719 58.589844 C 286.28125 59.8125 282.777344 61.394531 279.21875 62.8125 Z M 294.589844 46.308594 C 294.597656 46.347656 294.605469 46.386719 294.609375 46.433594 C 295.164062 46.480469 295.726562 46.503906 296.273438 46.59375 C 298.5 46.957031 300.75 47.222656 302.933594 47.757812 C 305.242188 48.324219 306.753906 49.890625 307.53125 52.171875 C 308.25 54.28125 308.464844 56.472656 308.71875 58.65625 C 308.808594 59.421875 308.878906 60.1875 308.964844 60.953125 C 309.097656 60.402344 309.125 59.863281 309.203125 59.332031 C 309.527344 57.199219 309.769531 55.042969 310.222656 52.9375 C 310.722656 50.644531 312.019531 48.863281 314.300781 48.03125 C 315.457031 47.609375 316.671875 47.292969 317.886719 47.09375 C 319.722656 46.789062 321.582031 46.617188 323.433594 46.390625 C 323.191406 46.300781 322.941406 46.265625 322.691406 46.230469 C 320.457031 45.917969 318.210938 45.691406 316 45.265625 C 312.851562 44.652344 310.839844 42.734375 310.160156 39.554688 C 309.808594 37.929688 309.578125 36.289062 309.328125 34.644531 C 309.1875 33.71875 309.128906 32.785156 309.035156 31.855469 C 308.914062 32.136719 308.878906 32.410156 308.839844 32.6875 C 308.5 35 308.253906 37.335938 307.789062 39.625 C 307.179688 42.644531 305.257812 44.535156 302.253906 45.183594 C 300.34375 45.59375 298.394531 45.820312 296.460938 46.113281 C 295.84375 46.195312 295.214844 46.242188 294.589844 46.308594 Z M 235.160156 108.132812 C 235.167969 108.117188 235.179688 108.101562 235.1875 108.089844 C 234.542969 108.027344 233.894531 107.972656 233.253906 107.902344 C 231.03125 107.65625 228.808594 107.441406 226.667969 106.726562 C 224.4375 105.980469 222.96875 104.519531 222.230469 102.285156 C 221.515625 100.117188 221.289062 97.867188 221.046875 95.625 C 220.980469 95.023438 220.925781 94.421875 220.867188 93.816406 C 220.714844 93.988281 220.710938 94.152344 220.6875 94.316406 C 220.332031 96.707031 220.027344 99.109375 219.597656 101.484375 C 219.363281 102.773438 218.773438 103.941406 217.851562 104.921875 C 216.628906 106.222656 215.046875 106.835938 213.363281 107.152344 C 211.621094 107.476562 209.851562 107.667969 208.089844 107.90625 C 207.535156 107.984375 206.972656 108.03125 206.417969 108.09375 C 207.371094 108.308594 208.316406 108.386719 209.257812 108.5 C 211.460938 108.757812 213.664062 109 215.734375 109.894531 C 217.273438 110.5625 218.371094 111.664062 219.046875 113.203125 C 219.957031 115.269531 220.1875 117.484375 220.449219 119.691406 C 220.5625 120.613281 220.644531 121.539062 220.742188 122.460938 C 220.875 122.34375 220.910156 122.21875 220.929688 122.09375 C 221.253906 119.78125 221.511719 117.449219 221.921875 115.152344 C 222.179688 113.703125 222.785156 112.371094 223.84375 111.277344 C 225.09375 109.992188 226.699219 109.433594 228.371094 109.128906 C 230.617188 108.722656 232.894531 108.457031 235.160156 108.132812 Z M 235.160156 108.132812 "/>
</g>
</svg>
